<?xml version="1.0" encoding="utf-8"?>
<!-- Generator: Adobe Illustrator 23.0.4, SVG Export Plug-In . SVG Version: 6.00 Build 0)  -->
<svg version="1.1" id="レイヤー_1" xmlns="http://www.w3.org/2000/svg" xmlns:xlink="http://www.w3.org/1999/xlink" x="0px"
	 y="0px" viewBox="0 0 500 110" style="enable-background:new 0 0 500 110;" xml:space="preserve">
<style type="text/css">
	.st0{fill:#FF6600;}
	.st1{fill:#3E3A39;}
</style>
<g>
	<path class="st1" d="M164.47,101.07c-0.5,0-0.96-0.27-1.2-0.71l-15.59-28L137.38,83.2v16.5c0,0.76-0.62,1.37-1.37,1.37h-6.15
		c-0.76,0-1.37-0.62-1.37-1.37V43.75c0-0.76,0.61-1.38,1.37-1.38H136c0.76,0,1.37,0.62,1.37,1.38v28.86c0.06,0,0.18-0.04,0.22-0.06
		l23.68-29.65c0.26-0.33,0.66-0.52,1.07-0.52h7c0.53,0,1.01,0.31,1.24,0.79c0.23,0.48,0.16,1.04-0.17,1.45l-16.98,20.9L173,99
		c0.25,0.42,0.25,0.95,0.01,1.38c-0.24,0.43-0.7,0.69-1.19,0.69H164.47z"/>
	<path class="st1" d="M218.48,101.07c-0.58,0-1.11-0.37-1.3-0.92l-4.23-12.2h-22.26l-4.19,12.2c-0.19,0.55-0.71,0.93-1.3,0.93h-6.48
		c-0.45,0-0.87-0.22-1.13-0.59c-0.26-0.37-0.32-0.84-0.17-1.26l20.34-55.94c0.2-0.54,0.71-0.91,1.29-0.91h5.52
		c0.58,0,1.09,0.36,1.29,0.91l20.34,55.94c0.15,0.42,0.09,0.89-0.16,1.26c-0.26,0.37-0.68,0.59-1.13,0.59H218.48z M201.92,54.41
		c-0.06,0-0.17,0.05-0.2,0.08l-8.45,25.56h17.15L201.92,54.41z"/>
	<path class="st1" d="M278.23,101.07c-0.76,0-1.37-0.62-1.37-1.37V64.48h-0.2l-11.92,27.35c-0.22,0.5-0.71,0.82-1.26,0.82h-5.61
		c-0.55,0-1.04-0.32-1.26-0.82l-11.92-27.35c-0.06,0-0.16,0.06-0.18,0.1l0.02,35.12c0,0.76-0.62,1.37-1.37,1.37h-6.15
		c-0.76,0-1.37-0.62-1.37-1.37V43.75c0-0.76,0.61-1.38,1.37-1.38h6.1c0.55,0,1.04,0.32,1.26,0.82l16.46,37.42l16.15-37.41
		c0.22-0.51,0.71-0.83,1.26-0.83h6.13c0.76,0,1.38,0.62,1.38,1.38V99.7c0,0.76-0.61,1.37-1.38,1.37H278.23z"/>
	<path class="st1" d="M303.6,101.07c-0.76,0-1.37-0.62-1.37-1.37V43.75c0-0.76,0.61-1.38,1.37-1.38h34.73
		c0.76,0,1.37,0.62,1.37,1.38v5.66c0,0.76-0.61,1.38-1.37,1.38h-27.21v16.75h23.02c0.76,0,1.37,0.62,1.37,1.38v5.14
		c0,0.76-0.61,1.38-1.37,1.38h-23.02v17.23h27.21c0.76,0,1.37,0.62,1.37,1.37v5.67c0,0.76-0.61,1.37-1.37,1.37H303.6z"/>
	<path class="st1" d="M369.5,101.55c-8.13,0-15.3-2.4-21.3-7.13c-0.29-0.23-0.48-0.58-0.52-0.95c-0.04-0.37,0.09-0.75,0.33-1.03
		l4.05-4.64c0.27-0.31,0.65-0.47,1.04-0.47c0.29,0,0.57,0.09,0.82,0.27c4.44,3.3,9.71,5,15.66,5.05c7.57-0.11,11.48-2.86,11.59-8.17
		c0.06-4.35-2.52-7.01-7.65-7.89c-2.36-0.32-4.95-0.68-7.77-1.09c-5.04-0.83-8.9-2.71-11.51-5.6c-2.73-3-4.07-6.56-4.07-10.87
		c0-5.17,1.67-9.23,5.11-12.4c3.28-3.09,8.01-4.7,14.05-4.75c6.76,0.15,12.76,1.93,17.89,5.29c0.31,0.2,0.52,0.52,0.59,0.88
		c0.07,0.36,0,0.74-0.21,1.04l-3.44,5.1c-0.27,0.39-0.7,0.6-1.14,0.6c-0.24,0-0.48-0.06-0.7-0.19c-4.09-2.44-8.61-3.72-13.43-3.82
		c-2.71,0-5.03,0.69-6.85,2.05c-1.92,1.44-2.88,3.52-2.93,6.36c0,1.69,0.65,3.21,1.97,4.59c1.31,1.39,3.44,2.36,6.32,2.9
		c1.6,0.27,3.83,0.58,6.6,0.93c5.48,0.75,9.58,2.74,12.2,5.92c2.63,3.16,3.9,6.75,3.9,10.95c-0.29,11.17-7.22,16.9-20.6,17.07
		C369.51,101.55,369.5,101.55,369.5,101.55z"/>
	<path class="st1" d="M437.57,101.07c-0.59,0-1.11-0.37-1.3-0.92l-4.23-12.2h-22.26l-4.19,12.2c-0.19,0.55-0.71,0.93-1.3,0.93h-6.48
		c-0.45,0-0.87-0.22-1.12-0.59c-0.26-0.37-0.32-0.84-0.17-1.26l20.34-55.94c0.2-0.54,0.71-0.91,1.29-0.91h5.52
		c0.58,0,1.09,0.36,1.29,0.91l20.33,55.94c0.15,0.42,0.09,0.89-0.17,1.26c-0.26,0.37-0.68,0.59-1.12,0.59H437.57z M421.01,54.41
		c-0.06,0-0.17,0.05-0.21,0.09l-8.45,25.56h17.15L421.01,54.41z"/>
	<path class="st1" d="M491.06,101.07c-0.47,0-0.91-0.24-1.16-0.64l-26.12-41.07c-0.06,0-0.16,0.06-0.18,0.09l0.02,40.24
		c0,0.76-0.61,1.37-1.37,1.37h-6.15c-0.76,0-1.37-0.62-1.37-1.37V43.75c0-0.76,0.62-1.38,1.37-1.38h6.25c0.47,0,0.91,0.24,1.16,0.64
		l26.16,41.07c0.06,0,0.16-0.06,0.18-0.09l-0.02-40.23c0-0.76,0.62-1.38,1.37-1.38h6.15c0.76,0,1.37,0.62,1.37,1.38V99.7
		c0,0.76-0.62,1.37-1.37,1.37H491.06z"/>
</g>
<g>
	<path class="st1" d="M249.08,7.98c-0.02,0.7-0.06,1.39-0.1,2.03h4.48c0.54,0,1.02-0.06,1.43-0.12l1.45,0.71
		c-0.06,0.35-0.12,0.81-0.15,1.06c-0.06,2.1-0.33,8.03-1.24,10.06c-0.44,0.95-1.14,1.41-2.41,1.41c-1.12,0-2.32-0.06-3.38-0.15
		l-0.25-2.18c1.06,0.15,2.16,0.25,3.01,0.25c0.62,0,0.95-0.19,1.18-0.71c0.7-1.45,0.97-6.14,0.97-8.38h-5.31
		c-0.77,5.77-2.82,8.94-6.39,11.45l-1.91-1.56c0.75-0.4,1.66-1.04,2.39-1.74c2.01-1.89,3.28-4.4,3.8-8.15h-3.15
		c-0.77,0-1.74,0.02-2.53,0.08V9.89c0.79,0.06,1.72,0.12,2.53,0.12h3.34c0.04-0.62,0.06-1.29,0.06-1.99c0-0.46-0.06-1.31-0.15-1.78
		h2.43C249.14,6.72,249.1,7.49,249.08,7.98z"/>
	<path class="st1" d="M273.88,9.21c-0.66,1.72-1.66,3.94-2.99,5.89c1.85,1.52,3.63,3.13,5.06,4.69l-1.66,1.82
		c-1.49-1.72-3.05-3.19-4.77-4.69c-1.89,2.3-4.38,4.67-7.95,6.58l-1.83-1.64c3.53-1.68,6.04-3.84,8.07-6.35
		c-1.51-1.22-3.67-2.82-5.72-4.09l1.37-1.66c1.74,1.1,4.05,2.7,5.71,3.96c1.22-1.8,1.99-3.65,2.59-5.35c0.17-0.46,0.35-1.2,0.46-1.7
		l2.41,0.85C274.4,7.94,274.04,8.75,273.88,9.21z"/>
	<path class="st1" d="M295.59,13.48c-0.58,2.01-1.52,4.11-3.05,5.81c-2.14,2.36-4.77,3.67-7.43,4.42l-1.62-1.87
		c3.03-0.62,5.56-1.97,7.26-3.73c1.18-1.22,1.93-2.78,2.3-4.15H282.5c-0.5,0-1.41,0.02-2.2,0.08v-2.16c0.81,0.08,1.6,0.15,2.2,0.15
		h10.62c0.56,0,1.06-0.08,1.33-0.19l1.47,0.91C295.8,12.98,295.63,13.3,295.59,13.48z M284.18,7.15h8.07c0.66,0,1.51-0.04,2.03-0.1
		v2.14c-0.52-0.04-1.35-0.06-2.05-0.06h-8.05c-0.66,0-1.41,0.02-1.99,0.06V7.05C282.73,7.11,283.49,7.15,284.18,7.15z"/>
	<path class="st1" d="M307.44,8.42c2.03-0.08,4.21-0.27,6.1-0.6v1.93c-2.03,0.29-4.58,0.48-6.83,0.54c-0.46,0.97-1.02,1.95-1.6,2.74
		c0.68-0.39,1.85-0.62,2.66-0.62c1.31,0,2.39,0.6,2.78,1.76c1.29-0.6,2.34-1.04,3.32-1.49c0.71-0.31,1.31-0.58,1.97-0.91l0.85,1.91
		c-0.6,0.19-1.49,0.52-2.12,0.77c-1.06,0.42-2.41,0.95-3.86,1.62c0.02,1.18,0.04,2.84,0.06,3.84h-1.97
		c0.04-0.73,0.06-1.91,0.08-2.93c-1.78,0.98-2.91,1.93-2.91,3.15c0,1.41,1.35,1.7,3.44,1.7c1.68,0,3.94-0.21,5.77-0.54l-0.06,2.09
		c-1.49,0.19-3.9,0.37-5.77,0.37c-3.09,0-5.5-0.73-5.5-3.3c0-2.55,2.49-4.17,4.9-5.4c-0.27-0.72-0.93-1.04-1.7-1.04
		c-1.27,0-2.57,0.66-3.44,1.49c-0.6,0.58-1.2,1.35-1.89,2.22l-1.78-1.33c2.43-2.28,3.84-4.29,4.69-6.06c-0.21,0-0.41,0-0.6,0
		c-0.87,0-2.3-0.04-3.46-0.12V8.28c1.1,0.17,2.57,0.23,3.57,0.23c0.4,0,0.81,0,1.22-0.02c0.27-0.85,0.44-1.72,0.48-2.47l2.16,0.17
		C307.88,6.76,307.71,7.53,307.44,8.42z"/>
	<path class="st1" d="M327.12,15.91l-2.09,0.66v5.54c0,0.97-0.21,1.47-0.75,1.78c-0.56,0.29-1.39,0.37-2.7,0.35
		c-0.06-0.46-0.29-1.29-0.52-1.78c0.81,0.02,1.6,0.02,1.83,0.02c0.25,0,0.35-0.08,0.35-0.37v-4.98l-2.36,0.72l-0.44-1.87
		c0.77-0.21,1.74-0.48,2.8-0.79v-4.09h-2.51V9.33h2.51v-4h1.78v4h1.99v1.78h-1.99v3.59l1.85-0.56L327.12,15.91z M337.14,13.59v2.01
		h2.43v1.76h-2.43v4.81c0,1.04-0.23,1.56-0.89,1.85c-0.68,0.29-1.72,0.31-3.22,0.31c-0.08-0.54-0.33-1.33-0.58-1.85
		c1.06,0.06,2.14,0.06,2.43,0.04c0.33-0.02,0.42-0.1,0.42-0.4v-4.77h-7.74V15.6h7.74v-2.01h-7.97v-1.76h5.29V9.58h-4.32V7.82h4.32
		V5.37h1.85v2.45h4.27v1.76h-4.27v2.24h5.23v1.76H337.14z M330.42,17.73c0.87,1.06,1.89,2.53,2.32,3.53l-1.64,0.97
		c-0.35-1-1.33-2.51-2.22-3.63L330.42,17.73z"/>
	<path class="st1" d="M346.2,13.67c1.43-0.46,4.9-1.66,7.36-1.66c3.09,0,5.25,1.83,5.25,4.79c0,3.9-3.61,6.16-9.63,6.54l-0.87-2.01
		c4.6-0.15,8.36-1.41,8.36-4.54c0-1.68-1.31-2.88-3.28-2.88c-2.51,0-6.87,1.8-8.38,2.45l-0.87-2.16
		C344.75,14.08,345.56,13.85,346.2,13.67z"/>
	<path class="st1" d="M363.64,8.59c1.52-0.15,5.21-0.5,9.03-0.81c2.22-0.19,4.29-0.31,5.72-0.37V9.5c-1.14,0-2.95,0.02-4.02,0.31
		c-2.76,0.83-4.61,3.78-4.61,6.24c0,3.78,3.53,5.04,6.97,5.19l-0.77,2.2c-4.07-0.19-8.32-2.36-8.32-6.95c0-3.11,1.85-5.64,3.53-6.74
		c-2.09,0.23-6.93,0.73-9.23,1.22l-0.23-2.28C362.52,8.67,363.24,8.63,363.64,8.59z"/>
	<path class="st1" d="M400.18,10.89c-0.41,3.17-1.1,5.85-2.24,8.03c0.97,1.62,2.22,2.92,3.78,3.75c-0.46,0.39-1.06,1.14-1.35,1.66
		c-1.43-0.89-2.59-2.11-3.53-3.63c-1.08,1.49-2.45,2.7-4.19,3.67c-0.19-0.44-0.73-1.24-1.1-1.66c-0.04,0.66-0.23,1.08-0.73,1.31
		c-0.58,0.27-1.41,0.29-2.63,0.29c-0.06-0.46-0.29-1.16-0.54-1.6c0.79,0.04,1.58,0.02,1.78,0.02c0.23-0.02,0.31-0.08,0.31-0.31
		v-1.43h-4.07v3.32h-1.79V14.25h7.66v8.19v0.25c1.87-0.95,3.26-2.26,4.29-3.88c-0.68-1.47-1.2-3.17-1.62-4.98
		c-0.35,0.83-0.77,1.58-1.2,2.24c-0.23-0.41-0.91-1.27-1.29-1.66c0.29-0.42,0.54-0.87,0.77-1.35h-9.98v-1.62h2.28V9.29h-1.97V7.67
		h1.97V5.49h1.76v2.18h2.28V5.49h1.78v2.18h1.99v1.62h-1.99v2.16h1.97v1.41c0.95-2.1,1.58-4.81,1.91-7.57l1.89,0.27
		c-0.19,1.2-0.37,2.39-0.64,3.53h5.79v1.8H400.18z M385.68,15.74v1.18h4.07v-1.18H385.68z M389.74,19.54v-1.2h-4.07v1.2H389.74z
		 M386.57,11.45h2.28V9.29h-2.28V11.45z M395.26,10.95c0.37,2.09,0.87,4.07,1.62,5.83c0.66-1.7,1.12-3.63,1.39-5.89h-2.99
		L395.26,10.95z"/>
	<path class="st1" d="M412.68,13.42h-8.24v-1.82h2.93V6.8h1.95v4.79h3.36V5.29h1.97v2.2h6.18v1.76h-6.18v2.34h8.17v1.82h-8.21v4.36
		c0,0.93-0.19,1.41-0.91,1.7c-0.71,0.27-1.76,0.29-3.3,0.29c-0.08-0.56-0.35-1.27-0.6-1.76c1.08,0.04,2.2,0.04,2.49,0.02
		c0.31,0,0.39-0.06,0.39-0.31V13.42z M410.46,14.52c-1.06,1.78-2.74,3.59-4.21,4.75c-0.4-0.33-1.24-0.95-1.74-1.22
		c1.52-1.02,3.05-2.59,3.96-4.15L410.46,14.52z M419.57,17.38c-1.85,4.54-5.89,6.31-12.55,7.11c-0.12-0.6-0.54-1.41-0.91-1.87
		c6.14-0.52,9.87-1.97,11.49-5.83L419.57,17.38z M418.76,13.85c1.47,1.22,3.3,3.05,4.09,4.32l-1.66,1.12
		c-0.77-1.29-2.49-3.15-4-4.46L418.76,13.85z"/>
	<path class="st1" d="M434.06,8.42c2.03-0.08,4.21-0.27,6.1-0.6v1.93c-2.03,0.29-4.58,0.48-6.83,0.54c-0.46,0.97-1.02,1.95-1.6,2.74
		c0.68-0.39,1.85-0.62,2.66-0.62c1.31,0,2.39,0.6,2.78,1.76c1.29-0.6,2.34-1.04,3.32-1.49c0.71-0.31,1.31-0.58,1.97-0.91l0.85,1.91
		c-0.6,0.19-1.49,0.52-2.12,0.77c-1.06,0.42-2.41,0.95-3.86,1.62c0.02,1.18,0.04,2.84,0.06,3.84h-1.97
		c0.04-0.73,0.06-1.91,0.08-2.93c-1.78,0.98-2.91,1.93-2.91,3.15c0,1.41,1.35,1.7,3.44,1.7c1.68,0,3.94-0.21,5.77-0.54l-0.06,2.09
		c-1.49,0.19-3.9,0.37-5.77,0.37c-3.09,0-5.5-0.73-5.5-3.3c0-2.55,2.49-4.17,4.9-5.4c-0.27-0.72-0.93-1.04-1.7-1.04
		c-1.27,0-2.57,0.66-3.44,1.49c-0.6,0.58-1.2,1.35-1.89,2.22l-1.78-1.33c2.43-2.28,3.84-4.29,4.69-6.06c-0.21,0-0.41,0-0.6,0
		c-0.87,0-2.3-0.04-3.46-0.12V8.28c1.1,0.17,2.57,0.23,3.57,0.23c0.4,0,0.81,0,1.22-0.02c0.27-0.85,0.44-1.72,0.48-2.47l2.16,0.17
		C434.49,6.76,434.33,7.53,434.06,8.42z"/>
	<path class="st1" d="M450.62,8.79c-0.1,2.3-0.25,7.09-0.25,9.96c0,2.2,1.35,2.94,3.15,2.94c3.63,0,5.81-2.05,7.3-4.27l1.47,1.8
		c-1.37,1.97-4.17,4.65-8.82,4.65c-3.15,0-5.27-1.35-5.27-4.79c0-2.95,0.21-8.3,0.21-10.29c0-0.87-0.08-1.72-0.23-2.41l2.66,0.02
		C450.73,7.18,450.64,8.05,450.62,8.79z"/>
	<path class="st1" d="M474.76,8.48c-0.02,0.52,0,1.16,0,1.83c1.66-0.02,4.19-0.12,5.97-0.33l0.08,1.95
		c-1.81,0.19-4.38,0.29-6.06,0.33c0,1.33,0.12,3.23,0.21,4.94c2.66,0.75,4.94,2.2,6.39,3.55l-1.24,1.95
		c-1.27-1.27-3.03-2.57-5.04-3.36c0.02,0.42,0.02,0.79,0.02,1.1c0,1.76-0.99,3.34-4.07,3.34c-2.9,0-5.17-0.93-5.17-3.49
		c0-2.01,1.74-3.61,5.41-3.61c0.52,0,1.04,0.04,1.54,0.08c-0.06-1.64-0.15-3.49-0.15-4.67c0-1.22-0.02-2.72-0.02-3.61
		c-0.02-0.87-0.08-1.78-0.21-2.24h2.49C474.84,6.76,474.78,7.78,474.76,8.48z M470.84,21.8c1.43,0,2.08-0.66,2.08-2.07
		c0-0.27,0-0.62-0.02-1.04c-0.62-0.12-1.24-0.19-1.89-0.19c-1.93,0-3.03,0.64-3.03,1.7C467.98,21.28,469.08,21.8,470.84,21.8z"/>
	<path class="st1" d="M493.42,13.07c-2.36,0-4.4,0.7-5.56,1.04c-0.62,0.19-1.31,0.46-1.85,0.66l-0.64-2.37
		c0.62-0.06,1.41-0.19,2.05-0.33c1.49-0.35,3.84-0.97,6.24-0.97c3.09,0,5.33,1.74,5.33,4.83c0,4.46-4.07,7.09-9.63,7.9l-1.18-2.01
		c5.08-0.62,8.55-2.47,8.55-5.97C496.74,14.25,495.47,13.07,493.42,13.07z M497.3,7.18l-0.33,2.01c-2.34-0.15-6.66-0.56-9.02-0.97
		l0.31-1.99C490.6,6.74,495.2,7.15,497.3,7.18z"/>
</g>
<path class="st0" d="M72.25,55.11l22.21-22.22c6.14-6.13,6.14-16.08,0-22.21c-6.13-6.14-16.08-6.14-22.21,0
	c-0.01,0.01-0.03,0.03-0.04,0.04L50.03,32.89L27.82,10.68l0,0c-2.84-2.84-6.77-4.6-11.11-4.6C8.03,6.08,1,13.11,1,21.79l0,0v66.64
	l0,0c0,8.68,7.03,15.71,15.71,15.71c4.34,0,8.27-1.76,11.11-4.6l0,0l22.22-22.22l22.22,22.22c6.13,6.13,16.08,6.13,22.21,0
	c6.14-6.14,6.14-16.08,0-22.22L72.25,55.11z"/>
</svg>
